<svg xmlns="http://www.w3.org/2000/svg" viewBox="0 0 228.98 214.16"><defs><style>.a{fill:#fff}</style></defs><path class="a" d="M43.85 106.86h142.27v7.27H43.85zm0-62.1h142.27v4.58H43.85zm30.48 8.51h5.16v48.84h-5.16zm-26.09 0h6.57v48.9h-6.57zm126.9 0h6.57v48.9h-6.57zm-14.36 0h9.91v40.07h-9.91zm0 43.74h9.91v5.15h-9.91zM135.4 53.27h9.91v40.07h-9.91zm0 43.78h9.91v5.15h-9.91zm-25.38-43.78h9.91v40.07h-9.91zm0 43.74h9.91v5.15h-9.91zM84.64 53.27h9.91v40.07h-9.91zm0 43.78h9.91v5.15h-9.91zM59.26 53.27h9.91v40.07h-9.91zm0 43.78h9.91v5.15h-9.91zm91.21-43.78h5.16v48.84h-5.16zm-25.38 0h5.16v48.84h-5.16zm-25.38 0h5.16v48.84h-5.16zm-53.17-11.9l-1.03-3.6 69.37-25.92 69.56 25.92-1.02 3.6H46.54z"/><path class="a" d="M42.02 36.65l-1.05-2.81 73.85-27.67 73.19 27.19-1.05 2.81-72.14-26.8-72.8 27.28z"/><path class="a" d="M35.33 33.81l-1.4-3.75L114.83 0l80.22 30.06-1.4 3.75-78.83-29.54-79.49 29.54zM38.67 146h-6.19l-.55-6.12H13.55V156H26.7q8.57 0 13.27 4.21t4.71 11.39A14.93 14.93 0 0140 183.14q-4.72 4.34-13.26 4.34H0v-4.61l6-1v-42l-6-1v-4.65h38.67zm-25.12 15.66v20.18H26.7q5.42 0 8.09-2.93a10.56 10.56 0 002.67-7.4 9.78 9.78 0 00-2.67-7.09q-2.67-2.77-8.09-2.77zm46.37-22.85v-4.65h19.15v4.65l-6 1v18.42H99v-18.39l-6-1v-4.65h19.15v4.65l-6 1v42l6 1v4.61H93v-4.61l6-1v-17.9H73.1v17.91l6 1v4.61H59.92v-4.61l6-1v-42zm110.35-4.65V146h-6.15l-.55-6.12h-11.83v42l6 1v4.61h-19.19v-4.61l6-1v-42h-11.89l-.51 6.12H126v-11.84zm58.73 4.65l-4.17.62-16.44 39.29a22.1 22.1 0 01-4.71 7.16q-2.55 2.36-8.11 2.36-.92 0-2.14-.11a9.08 9.08 0 01-1.56-.22l.22-5.46a12 12 0 001.57.11h1.83a4.67 4.67 0 003.72-1.3 20.57 20.57 0 002.54-4.27l1.43-3-15.49-34.53-4.32-.66v-4.65h16.74v4.65l-4.47.7 8.09 19.59 2.67 6.88h.22l10-26.44-4.65-.73v-4.65h17zM62.66 207.93h14.66v1.67H62.66zm89 0h14.66v1.67h-14.66zm-62.68 4.8l1.81-.22v-7.24h-1.83v-1.22l3.96-.72v9.18l1.8.22v1.28h-5.74v-1.28zm16.59-.21a1.69 1.69 0 001.38-.66 3.09 3.09 0 00.53-2v-.16a2.38 2.38 0 01-.86.7 2.44 2.44 0 01-1.07.24 3 3 0 01-2.35-1 4 4 0 01-.85-2.7 3.85 3.85 0 011-2.72 3.35 3.35 0 012.57-1.1 3.42 3.42 0 012.66 1.13 4.55 4.55 0 011 3.16v2.32a4.4 4.4 0 01-1.13 3.23 3.91 3.91 0 01-2.91 1.15 6 6 0 01-1.15-.11 5.06 5.06 0 01-1.09-.33l.24-1.55a5.63 5.63 0 001 .27 5.79 5.79 0 001 .08m.34-3.42a2 2 0 00.94-.2 1.68 1.68 0 00.63-.54v-1.14a3.2 3.2 0 00-.41-1.78 1.28 1.28 0 00-1.11-.61 1.21 1.21 0 00-1.05.63 2.76 2.76 0 00-.41 1.53 2.84 2.84 0 00.36 1.54 1.17 1.17 0 001.05.57m11.68 4.95v-1.4l3.45-3.7a8.39 8.39 0 001.06-1.45 2.37 2.37 0 00.31-1.1 1.65 1.65 0 00-.36-1.1 1.27 1.27 0 00-1-.43 1.33 1.33 0 00-1.13.5 2.14 2.14 0 00-.39 1.34h-2.08a3.22 3.22 0 01.95-2.45 3.57 3.57 0 012.66-1 3.72 3.72 0 012.6.86 2.94 2.94 0 01.95 2.29 3.23 3.23 0 01-.53 1.79 16.93 16.93 0 01-1.76 2.14l-1.9 2.08h2.77l.09-1.06h1.63V214zm22.44-4.15a4.71 4.71 0 01-1 3.22 3.72 3.72 0 01-5.28 0 4.7 4.7 0 01-1-3.22v-2.35a4.74 4.74 0 011-3.22 3.7 3.7 0 015.27 0 4.71 4.71 0 011 3.22zm-2.13-2.57a3.52 3.52 0 00-.38-1.86 1.32 1.32 0 00-2.2 0 3.58 3.58 0 00-.37 1.86v2.78a3.57 3.57 0 00.38 1.88 1.23 1.23 0 001.11.59 1.21 1.21 0 001.09-.59 3.6 3.6 0 00.37-1.88z"/></svg>